<svg width="185" height="185" viewBox="0 0 185 76" fill="none" xmlns="http://www.w3.org/2000/svg">
<path d="M2.952 59.642V63.98H7.776V65.24H2.952V69.668H8.316V71H1.314V58.31H8.316V59.642H2.952ZM14.2535 69.254L17.3135 61.118H19.0775L15.2075 71H13.2635L9.39347 61.118H11.1575L14.2535 69.254ZM29.7751 65.51C29.7751 65.858 29.7511 66.158 29.7031 66.41H21.8011C21.8371 67.538 22.1551 68.384 22.7551 68.948C23.3671 69.512 24.1111 69.794 24.9871 69.794C25.7791 69.794 26.4391 69.596 26.9671 69.2C27.5071 68.792 27.8371 68.252 27.9571 67.58H29.7031C29.5831 68.264 29.3131 68.876 28.8931 69.416C28.4851 69.956 27.9511 70.376 27.2911 70.676C26.6311 70.976 25.8871 71.126 25.0591 71.126C24.1111 71.126 23.2711 70.922 22.5391 70.514C21.8071 70.106 21.2311 69.524 20.8111 68.768C20.4031 68 20.1991 67.1 20.1991 66.068C20.1991 65.036 20.4031 64.136 20.8111 63.368C21.2311 62.6 21.8071 62.012 22.5391 61.604C23.2711 61.196 24.1111 60.992 25.0591 60.992C26.0191 60.992 26.8531 61.196 27.5611 61.604C28.2811 62.012 28.8271 62.558 29.1991 63.242C29.5831 63.926 29.7751 64.682 29.7751 65.51ZM28.1191 65.618C28.1551 64.886 28.0351 64.274 27.7591 63.782C27.4831 63.29 27.1051 62.924 26.6251 62.684C26.1451 62.444 25.6231 62.324 25.0591 62.324C24.1591 62.324 23.4031 62.606 22.7911 63.17C22.1791 63.722 21.8491 64.538 21.8011 65.618H28.1191ZM33.5555 63.116C33.8795 62.432 34.3535 61.904 34.9775 61.532C35.6015 61.148 36.3455 60.956 37.2095 60.956V62.738H36.7055C35.7815 62.738 35.0255 62.978 34.4375 63.458C33.8495 63.926 33.5555 64.706 33.5555 65.798V71H31.9175V61.118H33.5555V63.116ZM39.5097 61.118L42.7137 68.894L45.6837 61.118H47.5017L41.6337 75.68H39.7797L41.8317 70.838L37.6737 61.118H39.5097ZM54.4575 60.992C55.3335 60.992 56.1135 61.196 56.7975 61.604C57.4815 62.012 58.0155 62.6 58.3995 63.368C58.7955 64.136 58.9935 65.036 58.9935 66.068C58.9935 67.1 58.7955 68 58.3995 68.768C58.0155 69.524 57.4815 70.106 56.7975 70.514C56.1135 70.922 55.3335 71.126 54.4575 71.126C53.4975 71.126 52.6815 70.886 52.0095 70.406C51.3495 69.914 50.8935 69.272 50.6415 68.48V71H49.0035V57.68H50.6415V63.638C50.8935 62.846 51.3495 62.21 52.0095 61.73C52.6815 61.238 53.4975 60.992 54.4575 60.992ZM53.9895 62.45C53.3535 62.45 52.7775 62.6 52.2615 62.9C51.7455 63.188 51.3435 63.608 51.0555 64.16C50.7675 64.712 50.6235 65.348 50.6235 66.068C50.6235 66.788 50.7675 67.424 51.0555 67.976C51.3435 68.516 51.7455 68.936 52.2615 69.236C52.7775 69.536 53.3535 69.686 53.9895 69.686C55.0095 69.686 55.8195 69.368 56.4195 68.732C57.0315 68.084 57.3375 67.196 57.3375 66.068C57.3375 64.94 57.0315 64.058 56.4195 63.422C55.8195 62.774 55.0095 62.45 53.9895 62.45ZM65.6144 60.992C66.5624 60.992 67.4084 61.196 68.1524 61.604C68.9084 62.012 69.4964 62.6 69.9164 63.368C70.3484 64.136 70.5644 65.036 70.5644 66.068C70.5644 67.1 70.3484 68 69.9164 68.768C69.4964 69.524 68.9084 70.106 68.1524 70.514C67.4084 70.922 66.5624 71.126 65.6144 71.126C64.6664 71.126 63.8144 70.922 63.0584 70.514C62.3144 70.106 61.7264 69.524 61.2944 68.768C60.8624 68 60.6464 67.1 60.6464 66.068C60.6464 65.036 60.8624 64.136 61.2944 63.368C61.7264 62.6 62.3144 62.012 63.0584 61.604C63.8144 61.196 64.6664 60.992 65.6144 60.992ZM65.6144 62.432C65.0264 62.432 64.4804 62.564 63.9764 62.828C63.4844 63.092 63.0824 63.5 62.7704 64.052C62.4704 64.592 62.3204 65.264 62.3204 66.068C62.3204 66.86 62.4704 67.532 62.7704 68.084C63.0824 68.624 63.4844 69.026 63.9764 69.29C64.4804 69.554 65.0264 69.686 65.6144 69.686C66.2024 69.686 66.7424 69.554 67.2344 69.29C67.7384 69.026 68.1404 68.624 68.4404 68.084C68.7524 67.532 68.9084 66.86 68.9084 66.068C68.9084 65.264 68.7524 64.592 68.4404 64.052C68.1404 63.5 67.7384 63.092 67.2344 62.828C66.7424 62.564 66.2024 62.432 65.6144 62.432ZM76.7488 60.992C77.7088 60.992 78.5188 61.232 79.1788 61.712C79.8508 62.192 80.3188 62.834 80.5828 63.638V57.68H82.2208V71H80.5828V68.48C80.3188 69.284 79.8508 69.926 79.1788 70.406C78.5188 70.886 77.7088 71.126 76.7488 71.126C75.8728 71.126 75.0928 70.922 74.4088 70.514C73.7248 70.106 73.1848 69.524 72.7888 68.768C72.4048 68 72.2128 67.1 72.2128 66.068C72.2128 65.036 72.4048 64.136 72.7888 63.368C73.1848 62.6 73.7248 62.012 74.4088 61.604C75.0928 61.196 75.8728 60.992 76.7488 60.992ZM77.2168 62.45C76.2088 62.45 75.3988 62.774 74.7868 63.422C74.1868 64.058 73.8868 64.94 73.8868 66.068C73.8868 67.196 74.1868 68.084 74.7868 68.732C75.3988 69.368 76.2088 69.686 77.2168 69.686C77.8648 69.686 78.4408 69.536 78.9448 69.236C79.4608 68.936 79.8628 68.516 80.1508 67.976C80.4388 67.424 80.5828 66.788 80.5828 66.068C80.5828 65.348 80.4388 64.712 80.1508 64.16C79.8628 63.608 79.4608 63.188 78.9448 62.9C78.4408 62.6 77.8648 62.45 77.2168 62.45ZM85.5117 61.118L88.7157 68.894L91.6857 61.118H93.5037L87.6357 75.68H85.7817L87.8337 70.838L83.6757 61.118H85.5117ZM105.069 58.184C106.617 58.184 107.895 58.568 108.903 59.336C109.911 60.092 110.607 61.13 110.991 62.45H109.263C108.939 61.61 108.417 60.944 107.697 60.452C106.977 59.948 106.095 59.696 105.051 59.696C104.223 59.696 103.479 59.9 102.819 60.308C102.171 60.704 101.655 61.28 101.271 62.036C100.899 62.78 100.713 63.656 100.713 64.664C100.713 65.66 100.899 66.53 101.271 67.274C101.655 68.018 102.171 68.594 102.819 69.002C103.479 69.398 104.223 69.596 105.051 69.596C106.095 69.596 106.977 69.35 107.697 68.858C108.417 68.354 108.939 67.682 109.263 66.842H110.991C110.607 68.162 109.911 69.206 108.903 69.974C107.895 70.73 106.617 71.108 105.069 71.108C103.881 71.108 102.831 70.838 101.919 70.298C101.007 69.746 100.293 68.984 99.7767 68.012C99.2727 67.028 99.0207 65.912 99.0207 64.664C99.0207 63.404 99.2727 62.282 99.7767 61.298C100.293 60.314 101.007 59.552 101.919 59.012C102.831 58.46 103.881 58.184 105.069 58.184ZM117.231 60.992C118.191 60.992 119.001 61.232 119.661 61.712C120.333 62.192 120.801 62.834 121.065 63.638V61.118H122.703V71H121.065V68.48C120.801 69.284 120.333 69.926 119.661 70.406C119.001 70.886 118.191 71.126 117.231 71.126C116.355 71.126 115.575 70.922 114.891 70.514C114.207 70.106 113.667 69.524 113.271 68.768C112.887 68 112.695 67.1 112.695 66.068C112.695 65.036 112.887 64.136 113.271 63.368C113.667 62.6 114.207 62.012 114.891 61.604C115.575 61.196 116.355 60.992 117.231 60.992ZM117.699 62.45C116.691 62.45 115.881 62.774 115.269 63.422C114.669 64.058 114.369 64.94 114.369 66.068C114.369 67.196 114.669 68.084 115.269 68.732C115.881 69.368 116.691 69.686 117.699 69.686C118.347 69.686 118.923 69.536 119.427 69.236C119.943 68.936 120.345 68.516 120.633 67.976C120.921 67.424 121.065 66.788 121.065 66.068C121.065 65.348 120.921 64.712 120.633 64.16C120.345 63.608 119.943 63.188 119.427 62.9C118.923 62.6 118.347 62.45 117.699 62.45ZM130.512 60.956C131.664 60.956 132.594 61.328 133.302 62.072C134.01 62.804 134.364 63.866 134.364 65.258V71H132.726V65.402C132.726 64.418 132.474 63.662 131.97 63.134C131.466 62.606 130.782 62.342 129.918 62.342C129.018 62.342 128.298 62.636 127.758 63.224C127.218 63.8 126.948 64.646 126.948 65.762V71H125.31V61.118H126.948V63.458C127.2 62.654 127.644 62.036 128.28 61.604C128.928 61.172 129.672 60.956 130.512 60.956ZM149.1 58.31V59.642H145.518V71H143.88V59.642H140.298V58.31H149.1ZM152.366 63.116C152.69 62.432 153.164 61.904 153.788 61.532C154.412 61.148 155.156 60.956 156.02 60.956V62.738H155.516C154.592 62.738 153.836 62.978 153.248 63.458C152.66 63.926 152.366 64.706 152.366 65.798V71H150.728V61.118H152.366V63.116ZM161.686 60.992C162.646 60.992 163.456 61.232 164.116 61.712C164.788 62.192 165.256 62.834 165.52 63.638V61.118H167.158V71H165.52V68.48C165.256 69.284 164.788 69.926 164.116 70.406C163.456 70.886 162.646 71.126 161.686 71.126C160.81 71.126 160.03 70.922 159.346 70.514C158.662 70.106 158.122 69.524 157.726 68.768C157.342 68 157.15 67.1 157.15 66.068C157.15 65.036 157.342 64.136 157.726 63.368C158.122 62.6 158.662 62.012 159.346 61.604C160.03 61.196 160.81 60.992 161.686 60.992ZM162.154 62.45C161.146 62.45 160.336 62.774 159.724 63.422C159.124 64.058 158.824 64.94 158.824 66.068C158.824 67.196 159.124 68.084 159.724 68.732C160.336 69.368 161.146 69.686 162.154 69.686C162.802 69.686 163.378 69.536 163.882 69.236C164.398 68.936 164.8 68.516 165.088 67.976C165.376 67.424 165.52 66.788 165.52 66.068C165.52 65.348 165.376 64.712 165.088 64.16C164.8 63.608 164.398 63.188 163.882 62.9C163.378 62.6 162.802 62.45 162.154 62.45ZM169.477 58.22C169.477 57.92 169.579 57.68 169.783 57.5C169.987 57.308 170.257 57.212 170.593 57.212C170.929 57.212 171.199 57.308 171.403 57.5C171.607 57.68 171.709 57.92 171.709 58.22C171.709 58.52 171.607 58.766 171.403 58.958C171.199 59.138 170.929 59.228 170.593 59.228C170.257 59.228 169.987 59.138 169.783 58.958C169.579 58.766 169.477 58.52 169.477 58.22ZM171.403 61.118V71H169.765V61.118H171.403ZM179.239 60.956C180.391 60.956 181.321 61.328 182.029 62.072C182.737 62.804 183.091 63.866 183.091 65.258V71H181.453V65.402C181.453 64.418 181.201 63.662 180.697 63.134C180.193 62.606 179.509 62.342 178.645 62.342C177.745 62.342 177.025 62.636 176.485 63.224C175.945 63.8 175.675 64.646 175.675 65.762V71H174.037V61.118H175.675V63.458C175.927 62.654 176.371 62.036 177.007 61.604C177.655 61.172 178.399 60.956 179.239 60.956Z" fill="#7B6F72"/>
<path d="M29.684 10.728V15.66H19.388V20.988H27.092V25.776H19.388V36H13.232V10.728H29.684ZM36.0155 13.824C34.9355 13.824 34.0475 13.512 33.3515 12.888C32.6795 12.24 32.3435 11.448 32.3435 10.512C32.3435 9.552 32.6795 8.76 33.3515 8.136C34.0475 7.488 34.9355 7.164 36.0155 7.164C37.0715 7.164 37.9355 7.488 38.6075 8.136C39.3035 8.76 39.6515 9.552 39.6515 10.512C39.6515 11.448 39.3035 12.24 38.6075 12.888C37.9355 13.512 37.0715 13.824 36.0155 13.824ZM39.0755 15.912V36H32.9195V15.912H39.0755ZM54.7327 30.78V36H51.6007C49.3687 36 47.6287 35.46 46.3807 34.38C45.1327 33.276 44.5087 31.488 44.5087 29.016V21.024H42.0607V15.912H44.5087V11.016H50.6647V15.912H54.6967V21.024H50.6647V29.088C50.6647 29.688 50.8087 30.12 51.0967 30.384C51.3847 30.648 51.8647 30.78 52.5367 30.78H54.7327ZM70.4017 15.696C72.7537 15.696 74.6257 16.464 76.0177 18C77.4337 19.512 78.1417 21.6 78.1417 24.264V36H72.0217V25.092C72.0217 23.748 71.6737 22.704 70.9777 21.96C70.2817 21.216 69.3457 20.844 68.1697 20.844C66.9937 20.844 66.0577 21.216 65.3617 21.96C64.6657 22.704 64.3177 23.748 64.3177 25.092V36H58.1617V15.912H64.3177V18.576C64.9417 17.688 65.7817 16.992 66.8377 16.488C67.8937 15.96 69.0817 15.696 70.4017 15.696ZM101.355 25.632C101.355 26.208 101.32 26.808 101.248 27.432H87.3155C87.4115 28.68 87.8075 29.64 88.5035 30.312C89.2235 30.96 90.0995 31.284 91.1315 31.284C92.6675 31.284 93.7355 30.636 94.3355 29.34H100.888C100.552 30.66 99.9395 31.848 99.0515 32.904C98.1875 33.96 97.0955 34.788 95.7755 35.388C94.4555 35.988 92.9795 36.288 91.3475 36.288C89.3795 36.288 87.6275 35.868 86.0915 35.028C84.5555 34.188 83.3555 32.988 82.4915 31.428C81.6275 29.868 81.1955 28.044 81.1955 25.956C81.1955 23.868 81.6155 22.044 82.4555 20.484C83.3195 18.924 84.5195 17.724 86.0555 16.884C87.5915 16.044 89.3555 15.624 91.3475 15.624C93.2915 15.624 95.0195 16.032 96.5315 16.848C98.0435 17.664 99.2195 18.828 100.06 20.34C100.924 21.852 101.355 23.616 101.355 25.632ZM95.0555 24.012C95.0555 22.956 94.6955 22.116 93.9755 21.492C93.2555 20.868 92.3555 20.556 91.2755 20.556C90.2435 20.556 89.3675 20.856 88.6475 21.456C87.9515 22.056 87.5195 22.908 87.3515 24.012H95.0555ZM112.775 36.288C111.023 36.288 109.463 35.988 108.095 35.388C106.727 34.788 105.647 33.972 104.855 32.94C104.063 31.884 103.619 30.708 103.523 29.412H109.607C109.679 30.108 110.003 30.672 110.579 31.104C111.155 31.536 111.863 31.752 112.703 31.752C113.471 31.752 114.059 31.608 114.467 31.32C114.899 31.008 115.115 30.612 115.115 30.132C115.115 29.556 114.815 29.136 114.215 28.872C113.615 28.584 112.643 28.272 111.299 27.936C109.859 27.6 108.659 27.252 107.699 26.892C106.739 26.508 105.911 25.92 105.215 25.128C104.519 24.312 104.171 23.22 104.171 21.852C104.171 20.7 104.483 19.656 105.107 18.72C105.755 17.76 106.691 17.004 107.915 16.452C109.163 15.9 110.639 15.624 112.343 15.624C114.863 15.624 116.843 16.248 118.283 17.496C119.747 18.744 120.587 20.4 120.803 22.464H115.115C115.019 21.768 114.707 21.216 114.179 20.808C113.675 20.4 113.003 20.196 112.163 20.196C111.443 20.196 110.891 20.34 110.507 20.628C110.123 20.892 109.931 21.264 109.931 21.744C109.931 22.32 110.231 22.752 110.831 23.04C111.455 23.328 112.415 23.616 113.711 23.904C115.199 24.288 116.411 24.672 117.347 25.056C118.283 25.416 119.099 26.016 119.795 26.856C120.515 27.672 120.887 28.776 120.911 30.168C120.911 31.344 120.575 32.4 119.903 33.336C119.255 34.248 118.307 34.968 117.059 35.496C115.835 36.024 114.407 36.288 112.775 36.288ZM135.873 30.78V36H132.741C130.509 36 128.769 35.46 127.521 34.38C126.273 33.276 125.649 31.488 125.649 29.016V21.024H123.201V15.912H125.649V11.016H131.805V15.912H135.837V21.024H131.805V29.088C131.805 29.688 131.949 30.12 132.237 30.384C132.525 30.648 133.005 30.78 133.677 30.78H135.873Z" fill="#1D1617"/>
<path d="M161.67 36L154.52 25.25L148.22 36H138.52L149.77 18.15L138.27 0.899999H148.22L155.27 11.5L161.47 0.899999H171.17L160.02 18.6L171.62 36H161.67Z" fill="url(#paint0_linear_853_1600)"/>
<defs>
<linearGradient id="paint0_linear_853_1600" x1="308" y1="68.4074" x2="-43.2744" y2="-55.1187" gradientUnits="userSpaceOnUse">
<stop stop-color="#CC8FED"/>
<stop offset="1" stop-color="#9DCEFF"/>
</linearGradient>
</defs>
</svg>
