<?xml version="1.0" encoding="UTF-8"?>
<svg version="1.1" viewBox="0 0 873 915" width="1280" height="1280" xmlns="http://www.w3.org/2000/svg">
<path transform="translate(707,7)" d="m0 0 4 1 4 16 4 8 6 25 6 31 4 31 1 12 1 56 2 29v54l-2 35-2 47-3 23-5 27-6 21-6 14-8 16-10 18-9 12-9 10-9 11-15 16-8 6 1 11 14 12 16 15 10 9 8 7 13 13 10 15 9 11 4 3 9 1 6 4 4 6 1 3v14l-1 4 4 1 6 5 4 8 3 11-2 12 9 12 19 28 7 10 13 23 18 36 4 16h-4v-2l-4-2-8-7-11-12-13-17-12-14-9-10-9-11-5-7 3 12 24 71 6 19 1 10-3 1v2l-5-1-8-9-14-24-8-14-8-15-14-34-8-20-5-13 6 38 6 34 5 25 2 17v7l-6-1-7-8-13-25-12-29-8-25-7-33-8-6-6-7-4-8-1-10 3-10 2-4-8-1-12-6-12-9-12-12-9-14-15-1-13-4-13-7-6-5-6 1-6 2 1 10v32l-2 20-2 10 1 7 5 17 3 18 1 15v15l-5 16-8 16-10 13-11 8-6 2h-17l-12-4-9-7-4-5 1 13 2 24 1 22v33l-11 9h-14l-12-1-8-2-8-5-7-8-28-49-13-27-20-46-15-41-8-25-7-29-6-24-4-10-3-4h-10l-33 15-24 10-8 5-16 12-16 11-12 11-13 9-5 2h-17l-14 13-6 10-7 11-14 19-16 21-12 16-8 10-6 4h-5l-4-7v-22l-10 9-12 8-10 7-5 1-3-3v-6l8-19-1-1-17 17-7 5-5-1-2-3-1-8 3-18 7-26 6-15 5-8 12-10 16-12 21-16 11-9 11-10 10-8 7-11 7-8 8-7 16-13 20-15 17-12 22-14 14-8 5-3-2-3 1-5 5-5 8-9 5-5-8-7-20-12-17-12-13-11-7-10-11-18-8-20-12-40-6-17-9-29-7-31-6-35-5-42-6-61-2-32v-47l3-27 5-25 5-16 5-12 6-2 8 4 14 12 11 9 13 11 19 14 19 12 18 10 17 10 4-1 13-10 27-14 29-12 25-8 38-10 23-5 10-1h15l40 5 29 6 19 6 38 14 16 8 13 9 21 13 6 5 5-1 9-12 6-9 8-10 6-10 9-11 12-14 11-16 10-18 7-9zm-424 377m-34 182 3 3 2-1-2-2z" fill="#0C0C0D"/>
<path transform="translate(422,73)" d="m0 0h33l22 3 29 6 30 9 20 8 16 8 14 8 16 12 13 11 5 4 12 17 9 13 3 4-1 6-16 33-14 24-12 16-12 15-13 18-8 11-12 15-10 13-12 16-14 19-25 38-12 19-10 17-2 4v7l8 16-3 9-6 11 1 7 4 5 2 1-1 5-6 12v6l-6 3-4 1h-14l-5-5-1-6-7-11-2-2v-5l2-3v-8l-3-6-8-6 2-15 2-7v-9l-9-10-10-13-16-21-14-18-11-13-9-11-12-14-9-11-16-21-11-14-13-16-11-14-14-18-12-17-26-36-11-15 1-5 9-13 11-12 8-7 15-12 20-13 18-10 23-10 36-12 26-7 20-3z" fill="#F9C31C"/>
<path transform="translate(438,250)" d="m0 0h38l17 3 15 5 13 7 10 8 6 8 9 14 4 17 1 9-12 15-10 14-11 15-23 35-12 19-10 17-2 4v7l8 16-3 9-6 11 1 7 4 5 2 1-1 5-6 12v6l-6 3-4 1h-14l-5-5-1-6-7-11-2-2v-5l2-3v-8l-3-6-8-6 2-15 2-7v-9l-9-10-10-13-16-21-14-18-11-13-9-11-12-14-4-6 1-10 6-15 10-15 11-12 9-8 13-8 22-10 13-4z" fill="#D99714"/>
<path transform="translate(515,505)" d="m0 0 10 1 16 3h27l14-4-1 10-6 19-5 19-10 29-5 8-6 2v2l-12 6-25 5-31 5-18 2h-38l-46-8-23-8-7-9-13-23-14-27-7-17v-3l9 3 21 5h20l15-4 10-6 4-1h9l14 2 9 3 7 2 6 3 2 4h21l10-4 9-3 18-11z" fill="#F1C9B1"/>
<path transform="translate(704,43)" d="m0 0 2 1 5 29 1 1 3 31 1 4 4 63 1 33-1 11v19l1 30v32l-5 30-4 19 1 15-3 20-6 22-8 21-8 18-16 32-6 10-14 14-10 13-13 12-8 7-4 5-11 19-3 7-3 1 2-10 13-27 4-9-1-10-3 2-2-8-5-3v-6l-4-1-11 3-1 7-1 5-3 3v-9l-21 5-11 1h-11l-10-2-1-2 5-5 2-10 11 3h12l10-4 8-9 4-4 9-21 6-18 2-9 2-1 2 5v7l5 13 8 10 4 2 3 6 3 2 6 1-1 6-2 7 6 3v8l6-1h2l12-21 17-33 12-28 10-28 3-24 3-36 3-53 1-27v-51l-5-57-2-46v-21l-5 25-12 35-4 5-2 5h-2l-2 9-7 19-4 14-14 34-5 10-5 4-8 13-11 21-15 24-12 18-11 16-9 11-4 6-12 11v7l2 2 18-1 1 3h2l-1 10 3 4 9 1-4 6-10 11-6 1-2-5-4-2-2-3v-4h-6l-2-2-9-2h-9l-2-4h-7l-7 9-24 36-5 6-2-1 15-24 11-16 13-18 14-19 13-18 4-4 14-19 16-21 20-25 14-21 9-16 1-2h2l3-10 10-21 5-11 13-30 10-26 4-10 13-32z" fill="#252626"/>
<path transform="translate(552,598)" d="m0 0 2 2 2 8-4 5-1 13-5 1-11 5-24 4-3 3 3 5 12 6 6 2 7 1-4 2-17 2h-11l2 4 18 9 10 2 9-1 5-1v8l-2 7-14-7-3-1h-17l-8 3-10 9-6 9-6 12-12 1-6-3h-7v-9h-3l-2 10 1 2-8 5-48-2-20-2-3-2 11-9 4-7-4-2-13-3v-2l12-2 5-3 3-5 2-1v-3l-23-5-8-3 4-2 11-2 6-4 1-6-7-3-12-4-18-10-2-2v-24l-2-8 7 1 8 3 3 7 12 25 5 6 3-1v-14l-1-16 27 6 16 2 15 1 9 3h30l17-3 9-1 4 9 2 4h5l3-6 2-13 15-6 16-8z" fill="#F8C11C"/>
<path transform="translate(140,58)" d="m0 0 3 1 11 24 8 16 4 5 6 12 12 19 17 25 13 19 12 17 14 19 13 18 14 19 1 3 4 2 6 10 13 15 11 13 8 11 10 13 9 11 6 9 6 8 7 8 7 7 9 11 14 17 8 10 1 2-4-1-12-5-13-10h-8l-5-2-4 1v6l-2 2-9 1-2 7v5l-3 3-5-2-14-14-10-8v-2l5-3 5 1 2 1 15 1 5-5-1-7-7-11v-3h2l-1-9-5-9-12-16-11-13-13-17-16-23-11-15-14-20-16-24-12-19-12-20-10-17-3-7-12-21-7-15v-2h-2l-12-23-8-13-1-4h-2l-1 9-2 11v36l3 61 4 46 6 47 8 45 9 41 6 24 12 30 8 17 11 17 12 18 11 10 11 9 13 11 10 8 3 1-4-7-10-14-1-7 3-5 2-1h8l12 4h10l6-1 5 3 1 3h10l10 8 12 6 13 2 20-1 1 7 4 9v2l-4 1h-18l-14-3-13-5-9-5-3-1 1 10 2 9h2v3l-7 2-6 3-7 1h-8l-5-3v2l15 20 7 8 6 8v2l-5-2-14-12-9-7-10-14-6-10-9-12-8-3-10-8-18-12-8-7-8-9-8-16-11-25-10-27-6-20-12-48-7-35-6-39-5-51-2-34-1-53v-33l1-6 1-19 3-10z" fill="#252626"/>
<path transform="translate(517,522)" d="m0 0 11 1 6 3 2 2v23l-4 20-3 7-11 4-5 1h-24l-13-1h-10l-36 4-13 1h-11l-17-2-7-4 1-16 1-2 3 1 44-1v-2l-12 1h-14l-9-2-7 1-3-3-1-5 4-12 7-9 1-1 16 1 27 5 8 1h25l21-7 8-4 10-4z" fill="#F8F8F8"/>
<path transform="translate(513,683)" d="m0 0 14 1 13 5 5 5 6 10 3 10 1 10-1 25-3 16-7 16-4 6-10 10-3 2-10 1-13-5-10-8-6-9-4-11-1-6v-22l2-18 5-16 7-12 9-8z" fill="#F9C31C"/>
<path transform="translate(282,383)" d="m0 0 5 2 3 2v2l4 2 16 16 8 7 13 12 11 9 15 11 16 9 10 4v9l-2 8-6 9-11 8-8 3-8 1h-9l-11-2-9-6-8-9-8-13-9-20-7-21-3-16z" fill="#F9F9F9"/>
<path transform="translate(249,567)" d="m0 0 4 1 2-1 5 5 15 9 25 16 16 11 7 5-2 2-16 2-16 7-42 21-10 2-1 3-5-2-13-12-8-10-8-13-4-8 1-2 6 7 3 1-3-7-1-5 3-1 3 5 3 1-3-9 3-1 2 5h3l-2-8 6-4h3l2 5h2l-2-8 4-2 3 7 3 1-1-13 5-2 2 6 2 1-3-9z" fill="#F1C9B1"/>
<path transform="translate(635,545)" d="m0 0 5 2 11 9 13 12 15 14 12 11 13 13-1 4-9 4-19 13-7 3-8-5-25-7-28-7-15-5-9-5 5-5 11-9 15-13 9-9 9-13z" fill="#CA9B7E"/>
<path transform="translate(192,608)" d="m0 0h2l10 19 9 12 9 10 10 7-3 3-11 7-12 11-4 3-4 1-6 9-5 3-7-1-7-6-6-12-1-14-3-1-1 15 3 10 2 3-1 4-6 4-12-1-7-4-8-8-3-4-2-7v-8l16-15 4-5 4-1 2-4 13-10 14-11 10-8z" fill="#234569"/>
<path transform="translate(381,611)" d="m0 0 27 6 16 2 15 1 9 3h30l17-3 9-1 4 9v2h-2v2l-6 3-19 5-14 3h-3v2l5 2 10 6 9 6 2 4v3l-3 1h-14l-12-4-4-2v8l11 7 6 4 1 5-4 4-3 2-1 5-3 2-11-1-3-2-7 3-5-2 1-3 7-3 4-6-1-3-9 3-4 2-5-1-2-2 1-7 14-12 5-5h4v-3l-4 1-8 6-8 4-4 1h-14l-1-1v-6l6-5 16-8h2v-2h-18l-19-3-18-4z" fill="#D99714"/>
<path transform="translate(189,153)" d="m0 0 4 4 10 16 11 16 14 20 14 18 10 11 7 8 8 8 5 3 6 10 13 15 11 13 8 11 10 13 9 11 6 9 6 8 7 8 7 7 9 11 14 17 8 10 1 2-4-1-12-5-13-10h-8l-5-2-4 1v6l-2 2-9 1-2 7v5l-3 3-5-2-14-14-10-8v-2l5-3 5 1 2 1 15 1 5-5-1-7-7-11v-3h2l-1-9-5-9-12-16-11-13-13-17-16-23-11-15-14-20-16-24-12-19-12-20-10-17z" fill="#262627"/>
<path transform="translate(665,167)" d="m0 0 1 3-9 24-11 26-5 5-6 8-15 28-15 24-12 18-11 16-9 11-4 6-12 11v7l2 2 18-1 1 3h2l-1 10 3 4 9 1-4 6-10 11-6 1-2-5-4-2-2-3v-4h-6l-2-2-9-2h-9l-2-4h-7l-7 9-24 36-5 6-2-1 15-24 11-16 13-18 14-19 13-18 4-4 14-19 16-21 20-25 14-21 9-16 1-2h3l9-16 12-18z" fill="#252626"/>
<path transform="translate(602,368)" d="m0 0h2l-1 24-3 19-6 22-9 26-6 11-7 9-4 2-8 1-12-2-9-6-9-9v-2l-4-2-2-5 15-14 14-15 10-10 7-8 11-12 10-13z" fill="#F9F9F9"/>
<path transform="translate(552,598)" d="m0 0 2 2 2 8-4 5-1 13-5 1-11 5-24 4-3 3 3 5 12 6 6 2 7 1-4 2-17 2h-11l2 4 18 9 10 2 9-1 5-1v8l-2 7-14-7-3-1h-17l-8 3-10 9-6 9-6 12-12 1-6-3h-7v-9h-3l-3 10-3-2-1-4-2 1h-6l-4-4 1-7 9-10v-2l4-1 2 4-4 6-5 3h-3v3l4 1 8-3 2 2 11 1 3-1v-5l6-4 1-5-4-4-12-7-2-2 1-8 4 1 12 4h17l-3-7-17-10-6-4v-2l29-7 10-3 3-1v-2h3l1 2h5l3-6 2-13 15-6 16-8z" fill="#F7C01C"/>
<path transform="translate(382,750)" d="m0 0 6 2 18 8 26 8 26 6 16 2-2 37-16 3h-24l-15-3-8-3-5-8-13-28-9-23z" fill="#F8C21C"/>
<path transform="translate(428,445)" d="m0 0 7 6 8 7 6 3 6-1 9-7 5-7 3 3 7 14-3 9-6 11 1 7 4 5 2 1-1 5-6 12v6l-6 3-4 1h-14l-5-5-1-6-7-11-2-2v-5l2-3v-8l-3-6-8-6 2-15z" fill="#F8C11C"/>
<path transform="translate(512,517)" d="m0 0h12l10 3 5 5 2 7v20l-3 16-4 11-4 5-12 6-7 2-13-1-19-3-29 1-47 4-10-1-10-5-6-6-1-3v-14l2-15 5-13 7-8 3-2 10-1 15 2 13 3 19 2h18l10-2 18-7 8-4zm5 5-10 3-11 5-16 6-7 2h-25l-30-5-14-2h-7l-6 7-4 8-2 10 2 4 6 1 5-1 7 2h14l12-1v2l-44 1-3-1-1 2-1 16 7 4 17 2h11l49-5h10l13 1h24l11-3 6-3 5-19 1-7v-23l-5-4-11-2z" fill="#111214"/>
<path transform="translate(643,552)" d="m0 0 5 1 17 16 26 24 13 13-1 4-9 4-17 12h-3l-1-10-4-6-7-6-10-5-16-5-16-4 2-4 11-13 8-14z" fill="#F3CAB3"/>
<path transform="translate(466,730)" d="m0 0h12v39l-2 1h-11l-26-6-25-7-21-8-12-6-3-5-1-5 2-1 13 3 27 2h27l9-2 2-2z" fill="#224467"/>
<path transform="translate(553,725)" d="m0 0h1v24l-3 16-7 16-4 6-10 10-3 2-10 1-13-5-10-8-6-9-4-11-1-6v-22h1l1 19 7-1 6 4 1 1h16l14-5 17-9 6-4z" fill="#D99714"/>
<path transform="translate(704,606)" d="m0 0 5 5 10 14 3 3-2 4-7 7-4 8v7l4 6 6 3h15l-2 13-12-6-9-1-3 2-5-1-27-12-16-9-5-5 16-7 16-10 9-8 4-7-3-1 6-2z" fill="#182F48"/>
<path transform="translate(255,569)" d="m0 0 14 8 40 26 14 10-2 2-16 2-16 7-42 21-10 2-1 3-5-2-7-6 3-1 11-8 24-13 18-12v-3l-7-11-10-15-8-8z" fill="#CA9B7E"/>
<path transform="translate(122,668)" d="m0 0h3l1 3v8l-13 12-13 13-8 7-7 7-7 8-18 18-7 8-9 10-7 9-3 2 2-10 8-23 8-16 13-9 16-13 19-14 12-11z" fill="#B8B7B7"/>
<path transform="translate(327,341)" d="m0 0h5l13 11 10 10 9 11 14 17 8 10 1 2-4-1-12-5-13-10h-8l-5-2-4 1v6l-2 2-9 1-2 7v5l-3 3-5-2-10-10 1-2 7-1 3-1 1-3 5 1 2 1-2-3v-5l3-2 2-6h2l-1-7-1-4-5-5v-5l3-3-4-6z" fill="#F3F3F3"/>
<path transform="translate(459,637)" d="m0 0h2l-1 5-5 8 1 3 11 5 8 2 14 2 1 4-3 1h-14l-12-4-4-2v8l11 7 6 4 1 5-4 4-3 2-1 5-3 2-11-1-3-2-7 3-5-2 1-3 7-3 4-6-1-3-9 3-4 2-5-1-2-2 1-7 14-12 5-5h4v-3l-4 1-8 6-8 4-4 1h-14v-4l5-2 10-2 11-6 12-11z" fill="#D99714"/>
<path transform="translate(345,383)" d="m0 0 5 2h8l13 10 12 5 6 3 3 5 12 13 17 17 1 9-4 14v9l9 10 2 7-4-1-3-5-10-4-3-1 3-12 3-4v-7l-6-10-10-10-13-22-5-5h-8l-9-1-5-6-2-1-2-6-2-1h-6l-2 3v10l-4 3-2 6-6 5-9-8 3-4v-7l2-6 10-1 2-7z" fill="#252626"/>
<path transform="translate(446,772)" d="m0 0 9 1 7 2 12 1-2 37-16 3h-24v-1h5v-10l6-27z" fill="#D99714"/>
<path transform="translate(128,684)" d="m0 0 3 3 5 6-1 4-22 22-7 8-10 11-9 11-9 10-11 14h-3l11-31 4-6 12-12 7-8 15-15 7-8z" fill="#B9B8B8"/>
<path transform="translate(268,545)" d="m0 0h2l9 12 16 16 14 10 16 8 14 6 9 2-3 2-1 3-4-1v16l-5-4-5-6-17-13-21-14-18-11-21-11 2-4 11-8z" fill="#182E47"/>
<path transform="translate(142,699)" d="m0 0 11 2-4 6-9 10-13 18-20 30-12 19-2 1 3-29 1-7 7-8 5-5 11-12 7-8 8-8z" fill="#B9B8B8"/>
<path transform="translate(276,401)" d="m0 0h1l2 18 5 17 3 8v3h2l2 8 2 6-7-2-12 4h-4l-12-17-2-5 8-5 3-5v-7l-2-7 2-6 7-6z" fill="#252626"/>
<path transform="translate(219,647)" d="m0 0 9 6 4 4-11 7-13 11-6 5-4 1-6 9-5 3-7-1-7-6-3-5v-2l11-4 10-9 8-7 8-3 7-4h2l2-4z" fill="#182E47"/>
<path transform="translate(704,606)" d="m0 0 5 5 10 14 3 3-2 4-7 7-3 5h-2l-1 10-7-6-23-12 2-4 10-7 7-6 4-7-3-1 6-2z" fill="#224468"/>
<path transform="translate(556,325)" d="m0 0 1 3-5 9-8 10v1h5l2 2-1 5-2 4v7l10 1 2 4h6l3 3 1 5 5 3 1 2v6l-5 1-2-5-4-2-2-3v-4h-6l-2-2-9-2h-9l-2-4h-7l-7 9-24 36-5 6-2-1 15-24 11-16 13-18 14-19 12-16z" fill="#EFEEED"/>
<path transform="translate(514,387)" d="m0 0 1 2-12 27-3 7-4 9-4 6-3 2v9l2 6-2 4v6l2 3 7 3 1 7-3 3-9 1-3 3-2 8-4-2-3-3v-5l9-15-1-9-7-13v-5l11-16 2-5 5-3 16-24z" fill="#252626"/>
<path transform="translate(417,826)" d="m0 0 10 2 13 3 9 29 6 18 2 8-6-1-8-5-7-11-8-18-11-23z" fill="#214265"/>
<path transform="translate(370,714)" d="m0 0 30 5 12 1 30 1 2 7 4 4-1 1h-32l-20-1-20-3-5-12z" fill="#262626"/>
<path transform="translate(466,730)" d="m0 0h12v39l-2 1h-11l-19-4 3-1 1-8 9-17 5-6h-7l4-2z" fill="#182F48"/>
<path transform="translate(471,824)" d="m0 0h1l3 47v15l-1 1h-7l-9-30-6-26 9-3z" fill="#182F48"/>
<path transform="translate(166,107)" d="m0 0 4 5 10 17 21 31 13 19 12 17 14 19 13 18 14 19v3l-15-15-7-8-13-16-13-18-26-39-13-21-12-23-2-5z" fill="#E6E6E6"/>
<path transform="translate(552,598)" d="m0 0 2 2 2 8-4 5-1 13-5 1-11 5-10 2h-7l-3-2 3-6 2-13 15-6 16-8z" fill="#D99714"/>
<path transform="translate(527,368)" d="m0 0 8 1 2 3h9l9 2 2 2 6 1 3 7 4 4 1 2 4 2-11 12-2 1-2-3-5-1 2-6-1-7-3-2h-8l-1-1-7 1-3 3h-2l-2-6-2-1h-6l-5 2 5-9z" fill="#252626"/>
<path transform="translate(714,113)" d="m0 0 2 3 3 38 2 44-1 18v19l1 30v22l-2-2-3-44-2-51z" fill="#DFDEDE"/>
<path transform="translate(677,119)" d="m0 0h2v7l-3 14-7 20-9 20-10 16-7 11-6 10-1-3 5-12 8-17 5-11 13-30 9-24z" fill="#E9E9E9"/>
<path transform="translate(459,637)" d="m0 0h2l-1 5-5 8 1 3 11 5 8 2 14 2 1 4-3 1h-14l-12-4-10-7-8 6-10 5-4 1h-14v-4l5-2 10-2 11-6 12-11z" fill="#131313"/>
<path transform="translate(344,600)" d="m0 0 7 1 8 3 3 7 12 25v1l-9-1-10-5-8-6-1-17z" fill="#D99714"/>
<path transform="translate(727,632)" d="m0 0h9l5 3 1 7-5 10-6 5-2 1h-8l-6-4-1-1v-8l9-10z" fill="#224467"/>
<path transform="translate(689,674)" d="m0 0h5l7 8 4 10v7l-3 6-1 1-7-1-6-4-6-7 1-9 5-10z" fill="#182F48"/>
<path transform="translate(714,673)" d="m0 0 9 3 7 6 1 2v8l-3 10-5 2-8-6-4-6-3-9 1-7z" fill="#182F48"/>
<path transform="translate(283,496)" d="m0 0 7 1 3 6 8 5 2 2-1 6-4 1-15-5v5l-2 2-12-1-3-1-1-6 3-3h5l1-5 2-2h4l2-4z" fill="#F0F0F0"/>
<path transform="translate(600,455)" d="m0 0h5l1 5 6 2 3 8 3 2 2 7 3 4v5l-3 2-8-8v-5l-4-1-2-2v-3l-8 1-3 4-6-1-1-4 6-10 4-5z" fill="#eee"/>
<path transform="translate(414,496)" d="m0 0 10 1 4 6 5 6v2h-2l1 6-10-3-11-4-15-2 2-4 10-7z" fill="#262626"/>
<path transform="translate(55,722)" d="m0 0h3l1 17-13 17-3 4-4 9-5 4 2-10 8-23 8-16z" fill="#F4F4F4"/>
<path transform="translate(550,629)" d="m0 0h1v20l-9 4-3-1-3-3-14-4-6-4v-1l18-3 12-5z" fill="#214163"/>
<path transform="translate(744,662)" d="m0 0 5 1 6 8 2 3v9l-3 4-3 1h-8l-4-6-1-3v-11l4-5z" fill="#224468"/>
<path transform="translate(161,674)" d="m0 0h1l3 10 2 3-1 4-6 4-12-1-7-4-2-3 1-8 2-2 7 1h8l3-1z" fill="#182F48"/>
<path transform="translate(735,704)" d="m0 0 3 1 11 32 7 19 6 18v3h2v5l-3-4-13-28-10-24-8-18z" fill="#DFDEDF"/>
<path transform="translate(707,708)" d="m0 0h2l3 25 5 29 5 22-1 4-6-18-8-28-7-28-1-2 7-3z" fill="#B8B7B7"/>
<path transform="translate(451,670)" d="m0 0h2v7l2 1 9 1 1 4-3 2h-7l-2 7h7l6 2-2 4-11-1-3-2-7 3-5-2 1-3 7-3 4-6-1-3-9 3-5-1 1-4 12-6z" fill="#161616"/>
<path transform="translate(447,680)" d="m0 0 4 2-2 6-4 4-6 1v3l4 1 8-3 2 2 11 1 2-1-2 11-7 1v-9h-3l-3 10-3-2-1-4-2 1h-6l-4-4 1-7 9-10v-2z" fill="#D29314"/>
<path transform="translate(280,431)" d="m0 0 3 1 5 15v3l-7 4-12 1-2-2 1-7 4-1 1-7 3-3h2z" fill="#EFEEEE"/>
<path transform="translate(140,58)" d="m0 0 3 1 11 24 8 16 4 5v6l-4-5-13-25-5-8v-2h-2l-1 9-3 13-1 1-1 9h-1v-14l1-19 3-10z" fill="#2C3034"/>
<path transform="translate(99,689)" d="m0 0h2v5l-13 12-8 8-7 8-4 3 1-14 15-12z" fill="#F6F6F6"/>
<path transform="translate(348,640)" d="m0 0 5 2 16 8 10 3-1 3-9 2-9 1-5 2-3-5z" fill="#203F61"/>
<path transform="translate(548,654)" d="m0 0h2v13l-1 9h-1v-6l-5 1v-2l-17-3-6-3 4-2 18-4z" fill="#203E5E"/>
<path transform="translate(356,667)" d="m0 0 17 7 14 3-3 3-6 2h-18l-3-7z" fill="#203F5F"/>
<path transform="translate(455,491)" d="m0 0 7 1 4 3v5l-6 5h-6l-9-6-2-4 2-2z" fill="#D99714"/>
<path transform="translate(322,390)" d="m0 0 5 1 2 1 1-2-2 11v5l-3 3-5-2-10-10 1-2 7-1 3-1z" fill="#ECECEC"/>
<path transform="translate(584,585)" d="m0 0 3 1-8 8-16 10h-2l-2-5v-5l10-4z" fill="#182F48"/>
<path transform="translate(80,735)" d="m0 0h3l-1 12-11 18-3 7-4 2 10-29 4-8z" fill="#eee"/>
<path transform="translate(629,531)" d="m0 0h3l1 2v7l-10 14-8 10-4 3 8-16 5-14z" fill="#182F48"/>
<path transform="translate(738,668)" d="m0 0 2 4 5 4 11 4-2-9 3 3v9l-3 4-3 1h-8l-4-6-1-3z" fill="#182F48"/>
<path transform="translate(467,465)" d="m0 0h1v5l-7 9-3 3-5-1-11-6-10-6 1-2 5 1 12 6 7-1z" fill="#D99714"/>
<path transform="translate(526,365)" d="m0 0 2 3-13 19-18 27-5 6-2-1 15-24 11-16z" fill="#D9D9D9"/>
<path transform="translate(484,498)" d="m0 0 6 3 8 1v2l-11 6-7 6-4 3-3-1 8-15z" fill="#262626"/>
<path transform="translate(634,626)" d="m0 0 8 1 14 3 8 1v2l-12 5h-7l-11-11z" fill="#CA9B7A"/>
<path transform="translate(122,668)" d="m0 0h3l1 3v8l-5 4-9 2-2-3 1-4z" fill="#F0F0F0"/>
<path transform="translate(362,690)" d="m0 0 9 3 10 3-4 5-8 6-3-1-4-13z" fill="#203F60"/>
<path transform="translate(452,684)" d="m0 0h1v8h7l6 2-2 4-11-1-3-2-7 3-5-2 1-3 7-3 5-5z" fill="#131313"/>
<path transform="translate(105,743)" d="m0 0 3 4-1 5-9 16-2 4h-1l1-16 3-7z" fill="#F7F7F7"/>
<path transform="translate(711,738)" d="m0 0 2 1 5 27 4 18-1 4-6-18-5-17v-13z" fill="#E9E9E9"/>
<path transform="translate(750,694)" d="m0 0h4l10 14 7 11-1 2-12-13-8-7-4-4v-2z" fill="#B8B7B7"/>
<path transform="translate(121,682)" d="m0 0 2 1-63 63v-3l20-20 2-3h2l2-4 12-12 8-7z" fill="#191F24"/>
<path transform="translate(714,673)" d="m0 0 9 3 5 4 2 5v3l-7-1-6-4-5-6v-2h2z" fill="#224467"/>
<path transform="translate(714,663)" d="m0 0h20l-2 13-12-6-4-1z" fill="#203F60"/>
<path transform="translate(259,553)" d="m0 0 5 1 8 12 1 2-8-2-12-6 2-4z" fill="#214264"/>
<path transform="translate(131,714)" d="m0 0 2 4-6 7-11 14h-1v-10z" fill="#F9F9F9"/>
<path transform="translate(365,605)" d="m0 0 5 1 12 4-2 3v-2l-2 1-1 14-3-3-8-15z" fill="#182E46"/>
<path transform="translate(715,644)" d="m0 0 1 2 4 2 5 4 4 2h5l-3 3-2 1h-8l-6-4-1-1v-8z" fill="#182F48"/>
<path transform="translate(556,325)" d="m0 0 1 3-5 9-8 10-1 4-3 3-2-1 2-4v-3l14-19z" fill="#D6D5D5"/>
<path transform="translate(732,711)" d="m0 0 5 1 4 9 4 15-1 4-12-27z" fill="#B8B7B7"/>
<path transform="translate(128,684)" d="m0 0 3 3 5 6v3h-9l-5-3 2-5z" fill="#F0F0F0"/>
<path transform="translate(102,712)" d="m0 0h2v6l-9 12h-2v-7l4-6z" fill="#F6F6F6"/>
<path transform="translate(524,550)" d="m0 0h4l-1 6-6 5-6-1-3-5 4-1 4 1z" fill="#131416"/>
<path transform="translate(735,704)" d="m0 0 3 1 5 15v5l-2-1-4-11-6-2-1-3z" fill="#E9E8E8"/>
<path transform="translate(548,623)" d="m0 0h2v2l-15 7-4 1h-12l3-2 13-3z" fill="#F1B81A"/>
<path transform="translate(478,715)" d="m0 0h3l-2 10-1 1h-7l2-9z" fill="#262626"/>
<path transform="translate(452,690)" d="m0 0 1 2h7l6 2-2 4-11-1-3-4z" fill="#171717"/>
<path transform="translate(143,700)" d="m0 0 10 1-4 6-3 3h-2l-3-5v-3z" fill="#eee"/>
<path transform="translate(454,699)" d="m0 0h3l1 2v6h6l-4 2-7 2-2-2 1-5z" fill="#1A1A1A"/>
<path transform="translate(584,490)" d="m0 0h6l1 5-4 3-4-1-1-5z" fill="#E4E3E3"/>
<path transform="translate(526,365)" d="m0 0 2 3-10 15-3-1 2-4z" fill="#D1CFCF"/>
<path transform="translate(548,338)" d="m0 0 1 3-5 6-1 4-3 3-2-1 2-4v-3l5-5z" fill="#D1D1D2"/>
<path transform="translate(511,615)" d="m0 0 4 1-1 9-2 2-4-10z" fill="#182F48"/>
<path transform="translate(492,556)" d="m0 0h9v2l-8 2h-8v-2z" fill="#1A2026"/>
<path transform="translate(499,405)" d="m0 0h3l-2 5-8 10-2-1z" fill="#CBCACA"/>
<path transform="translate(155,90)" d="m0 0 3 1 6 11 2 2v6l-4-5z" fill="#252729"/>
<path transform="translate(516,381)" d="m0 0 1 3-6 9-4 1 2-5 5-7z" fill="#DCDBDB"/>
<path transform="translate(166,107)" d="m0 0 4 5 6 10v2l-3 1-7-15z" fill="#C8C7C7"/>
<path transform="translate(717,766)" d="m0 0h1l4 18-1 4-5-15z" fill="#C7C7C7"/>
<path transform="translate(746,695)" d="m0 0h6l3 9-4-2-5-5z" fill="#E7E7E7"/>
<path transform="translate(642,203)" d="m0 0 1 4-6 10-1-3 4-10z" fill="#CDCDCD"/>
<path transform="translate(217,603)" d="m0 0 4 1 1 8h-3l-2-4z" fill="#151A1F"/>
<path transform="translate(532,629)" d="m0 0m-8 1h8l-1 3h-12l3-2z" fill="#F6BF1C"/>
<path transform="translate(226,593)" d="m0 0 4 1 1 5-1 2-4-2-1-4z" fill="#16191D"/>
<path transform="translate(464,715)" d="m0 0h4v6l-2 1-4-4z" fill="#EBB019"/>
<path transform="translate(212,608)" d="m0 0h3l2 7h-4l-2-6z" fill="#151A1F"/>
<path transform="translate(715,757)" d="m0 0h1l1 5v8h-2l-2-10z" fill="#D9D8D8"/>
<path transform="translate(246,572)" d="m0 0 4 2 2 2v4l-4-2-2-2z" fill="#191919"/>
<path transform="translate(237,592)" d="m0 0 2 1 1 7h-4v-7z" fill="#1A1E22"/>
<path transform="translate(241,573)" d="m0 0 3 2 1 7-3-1-1-6-2-1z" fill="#1A1A1A"/>
</svg>
